<?xml version="1.0" standalone="no"?>
<!DOCTYPE svg PUBLIC "-//W3C//DTD SVG 20010904//EN"
 "http://www.w3.org/TR/2001/REC-SVG-20010904/DTD/svg10.dtd">
<svg version="1.0" xmlns="http://www.w3.org/2000/svg"
 width="512.000000pt" height="512.000000pt" viewBox="0 0 512.000000 512.000000"
 preserveAspectRatio="xMidYMid meet">
<metadata>
Created by potrace 1.11, written by Peter Selinger 2001-2013
</metadata>
<g transform="translate(0.000000,512.000000) scale(0.100000,-0.100000)"
fill="#000000" stroke="none">
<path d="M0 2560 l0 -2560 2560 0 2560 0 0 2560 0 2560 -2560 0 -2560 0 0
-2560z m2708 1559 c411 -45 687 -209 794 -471 59 -147 78 -358 44 -503 -51
-217 -239 -418 -473 -507 -46 -17 -81 -34 -78 -37 3 -2 37 -13 76 -22 242 -62
428 -191 518 -359 64 -121 76 -173 76 -345 0 -181 -14 -244 -87 -392 -134
-275 -425 -450 -820 -492 -57 -7 -347 -11 -703 -11 l-605 0 0 1575 0 1575 580
0 c345 0 620 -4 678 -11z"/>
<path d="M1880 3259 l0 -541 373 5 c339 4 379 6 455 26 285 73 432 249 432
514 -1 211 -85 369 -238 446 -143 72 -291 91 -734 91 l-288 0 0 -541z"/>
<path d="M1880 1869 l0 -550 433 3 c408 4 436 5 512 26 230 63 367 197 410
399 66 309 -78 550 -377 633 -107 30 -263 40 -640 40 l-338 0 0 -551z"/>
</g>
</svg>
